<mxfile host="app.diagrams.net" modified="2021-04-19T10:57:28.599Z" agent="5.0 (Macintosh; Intel Mac OS X 10_15_7) AppleWebKit/605.1.15 (KHTML, like Gecko) Version/14.0.3 Safari/605.1.15" etag="UPpr1b6beYI5pBrblech" version="14.6.1" type="github">
  <diagram id="FeApv7AwOljynkFXh0qf" name="Page-1">
    <mxGraphModel dx="1684" dy="1640" grid="1" gridSize="10" guides="1" tooltips="1" connect="1" arrows="1" fold="1" page="1" pageScale="1" pageWidth="1169" pageHeight="827" math="0" shadow="0">
      <root>
        <mxCell id="0" />
        <mxCell id="1" parent="0" />
        <mxCell id="BYBcxZ3BFC2ZWahzX4ps-1" value="" style="aspect=fixed;html=1;points=[];align=center;image;fontSize=12;image=img/lib/azure2/identity/Users.svg;" vertex="1" parent="1">
          <mxGeometry x="50" y="336" width="56.23" height="61.5" as="geometry" />
        </mxCell>
        <mxCell id="BYBcxZ3BFC2ZWahzX4ps-38" value="" style="edgeStyle=orthogonalEdgeStyle;rounded=0;orthogonalLoop=1;jettySize=auto;html=1;fontColor=#0066CC;strokeColor=#0066CC;" edge="1" parent="1">
          <mxGeometry relative="1" as="geometry">
            <mxPoint x="290" y="368.5" as="sourcePoint" />
            <mxPoint x="370" y="368.5" as="targetPoint" />
          </mxGeometry>
        </mxCell>
        <mxCell id="BYBcxZ3BFC2ZWahzX4ps-4" value="" style="aspect=fixed;html=1;points=[];align=center;image;fontSize=12;image=img/lib/azure2/containers/Kubernetes_Services.svg;" vertex="1" parent="1">
          <mxGeometry x="380.00000000000006" y="328.5" width="91.8" height="81" as="geometry" />
        </mxCell>
        <object label="&lt;font color=&quot;#0066cc&quot;&gt;Azure DB for MySQL&lt;/font&gt;" id="BYBcxZ3BFC2ZWahzX4ps-5">
          <mxCell style="aspect=fixed;html=1;points=[];align=center;image;fontSize=12;image=img/lib/azure2/databases/Azure_Database_MySQL_Server.svg;" vertex="1" parent="1">
            <mxGeometry x="640" y="290" width="48" height="64" as="geometry" />
          </mxCell>
        </object>
        <mxCell id="BYBcxZ3BFC2ZWahzX4ps-64" value="" style="edgeStyle=orthogonalEdgeStyle;rounded=0;orthogonalLoop=1;jettySize=auto;html=1;fontColor=#0066CC;strokeColor=#0066CC;entryX=1;entryY=0.5;entryDx=0;entryDy=0;" edge="1" parent="1" target="BYBcxZ3BFC2ZWahzX4ps-7">
          <mxGeometry relative="1" as="geometry">
            <mxPoint x="810" y="582" as="sourcePoint" />
            <mxPoint x="755" y="582" as="targetPoint" />
          </mxGeometry>
        </mxCell>
        <mxCell id="BYBcxZ3BFC2ZWahzX4ps-6" value="&lt;font color=&quot;#0066cc&quot;&gt;App Developers&lt;/font&gt;" style="pointerEvents=1;shadow=0;dashed=0;html=1;strokeColor=none;fillColor=#4495D1;labelPosition=center;verticalLabelPosition=bottom;verticalAlign=top;align=center;outlineConnect=0;shape=mxgraph.veeam.laptop;" vertex="1" parent="1">
          <mxGeometry x="810" y="557" width="70" height="50" as="geometry" />
        </mxCell>
        <mxCell id="BYBcxZ3BFC2ZWahzX4ps-50" value="" style="edgeStyle=orthogonalEdgeStyle;rounded=0;orthogonalLoop=1;jettySize=auto;html=1;fontColor=#0066CC;strokeColor=#0066CC;entryX=1;entryY=0.5;entryDx=0;entryDy=0;" edge="1" parent="1" target="BYBcxZ3BFC2ZWahzX4ps-9">
          <mxGeometry relative="1" as="geometry">
            <mxPoint x="650" y="582" as="sourcePoint" />
            <mxPoint x="815" y="582" as="targetPoint" />
            <Array as="points">
              <mxPoint x="630" y="582" />
              <mxPoint x="630" y="582" />
            </Array>
          </mxGeometry>
        </mxCell>
        <mxCell id="BYBcxZ3BFC2ZWahzX4ps-7" value="" style="shape=image;html=1;verticalAlign=top;verticalLabelPosition=bottom;labelBackgroundColor=#ffffff;imageAspect=0;aspect=fixed;image=https://cdn4.iconfinder.com/data/icons/logos-brands-7/512/visual_studio-128.png" vertex="1" parent="1">
          <mxGeometry x="656" y="552" width="60" height="60" as="geometry" />
        </mxCell>
        <mxCell id="BYBcxZ3BFC2ZWahzX4ps-9" value="" style="shape=image;html=1;verticalAlign=top;verticalLabelPosition=bottom;labelBackgroundColor=#ffffff;imageAspect=0;aspect=fixed;image=https://cdn3.iconfinder.com/data/icons/social-media-2169/24/social_media_social_media_logo_git-128.png" vertex="1" parent="1">
          <mxGeometry x="521" y="552" width="60" height="60" as="geometry" />
        </mxCell>
        <mxCell id="BYBcxZ3BFC2ZWahzX4ps-18" value="&lt;font color=&quot;#0066cc&quot;&gt;Visual Studio&lt;/font&gt;" style="text;html=1;align=center;verticalAlign=middle;resizable=0;points=[];autosize=1;strokeColor=none;" vertex="1" parent="1">
          <mxGeometry x="649" y="607" width="90" height="20" as="geometry" />
        </mxCell>
        <mxCell id="BYBcxZ3BFC2ZWahzX4ps-19" value="&lt;font color=&quot;#0066cc&quot;&gt;Azure repos&lt;/font&gt;" style="text;html=1;align=center;verticalAlign=middle;resizable=0;points=[];autosize=1;strokeColor=none;" vertex="1" parent="1">
          <mxGeometry x="515" y="614" width="80" height="20" as="geometry" />
        </mxCell>
        <mxCell id="BYBcxZ3BFC2ZWahzX4ps-21" value="" style="aspect=fixed;html=1;points=[];align=center;image;fontSize=12;image=img/lib/azure2/containers/Container_Registries.svg;" vertex="1" parent="1">
          <mxGeometry x="525" y="453" width="68" height="61" as="geometry" />
        </mxCell>
        <mxCell id="BYBcxZ3BFC2ZWahzX4ps-58" value="Azure Kubernetes Service" style="text;html=1;strokeColor=none;fillColor=none;align=center;verticalAlign=middle;whiteSpace=wrap;rounded=0;fontColor=#0066CC;" vertex="1" parent="1">
          <mxGeometry x="340" y="394" width="40" height="20" as="geometry" />
        </mxCell>
        <mxCell id="BYBcxZ3BFC2ZWahzX4ps-59" value="Azure Container&lt;br&gt;`Registry" style="text;html=1;strokeColor=none;fillColor=none;align=center;verticalAlign=middle;whiteSpace=wrap;rounded=0;fontColor=#0066CC;" vertex="1" parent="1">
          <mxGeometry x="600" y="480" width="40" height="20" as="geometry" />
        </mxCell>
        <mxCell id="BYBcxZ3BFC2ZWahzX4ps-66" value="" style="edgeStyle=orthogonalEdgeStyle;rounded=0;orthogonalLoop=1;jettySize=auto;html=1;fontColor=#0066CC;strokeColor=#0066CC;" edge="1" parent="1" source="BYBcxZ3BFC2ZWahzX4ps-62">
          <mxGeometry relative="1" as="geometry">
            <mxPoint x="515" y="585" as="targetPoint" />
          </mxGeometry>
        </mxCell>
        <mxCell id="BYBcxZ3BFC2ZWahzX4ps-62" value="" style="aspect=fixed;html=1;points=[];align=center;image;fontSize=12;image=img/lib/mscae/Azure_Pipelines.svg;fontColor=#0066CC;strokeColor=#0066CC;fillColor=none;" vertex="1" parent="1">
          <mxGeometry x="395" y="557" width="55" height="55" as="geometry" />
        </mxCell>
        <mxCell id="BYBcxZ3BFC2ZWahzX4ps-63" value="Azure Pipelines" style="text;html=1;strokeColor=none;fillColor=none;align=center;verticalAlign=middle;whiteSpace=wrap;rounded=0;fontColor=#0066CC;" vertex="1" parent="1">
          <mxGeometry x="395" y="614" width="40" height="20" as="geometry" />
        </mxCell>
        <mxCell id="BYBcxZ3BFC2ZWahzX4ps-68" value="Deploy" style="edgeStyle=orthogonalEdgeStyle;rounded=0;orthogonalLoop=1;jettySize=auto;html=1;fontColor=#0066CC;strokeColor=#0066CC;" edge="1" parent="1">
          <mxGeometry relative="1" as="geometry">
            <mxPoint x="410" y="539" as="sourcePoint" />
            <mxPoint x="410" y="420" as="targetPoint" />
            <Array as="points">
              <mxPoint x="410" y="489" />
              <mxPoint x="410" y="489" />
            </Array>
          </mxGeometry>
        </mxCell>
        <mxCell id="BYBcxZ3BFC2ZWahzX4ps-70" value="" style="rounded=0;whiteSpace=wrap;html=1;fontColor=#0066CC;strokeColor=#0066CC;fillColor=none;" vertex="1" parent="1">
          <mxGeometry x="361" y="547" width="260" height="122" as="geometry" />
        </mxCell>
        <mxCell id="BYBcxZ3BFC2ZWahzX4ps-72" value="Azure Devops" style="text;html=1;strokeColor=none;fillColor=none;align=center;verticalAlign=middle;whiteSpace=wrap;rounded=0;fontColor=#0066CC;" vertex="1" parent="1">
          <mxGeometry x="525" y="649" width="85" height="20" as="geometry" />
        </mxCell>
        <mxCell id="BYBcxZ3BFC2ZWahzX4ps-75" value="" style="endArrow=classic;startArrow=classic;html=1;fontColor=#0066CC;strokeColor=#0066CC;" edge="1" parent="1">
          <mxGeometry width="50" height="50" relative="1" as="geometry">
            <mxPoint x="457.5" y="335" as="sourcePoint" />
            <mxPoint x="644.5" y="335" as="targetPoint" />
          </mxGeometry>
        </mxCell>
        <mxCell id="BYBcxZ3BFC2ZWahzX4ps-76" value="Read-Write" style="edgeLabel;html=1;align=center;verticalAlign=middle;resizable=0;points=[];fontColor=#0066CC;" vertex="1" connectable="0" parent="BYBcxZ3BFC2ZWahzX4ps-75">
          <mxGeometry x="0.0386" relative="1" as="geometry">
            <mxPoint as="offset" />
          </mxGeometry>
        </mxCell>
        <mxCell id="BYBcxZ3BFC2ZWahzX4ps-79" value="" style="aspect=fixed;html=1;points=[];align=center;image;fontSize=12;image=img/lib/azure2/general/Subscriptions.svg;fontColor=#0066CC;strokeColor=#0066CC;fillColor=none;" vertex="1" parent="1">
          <mxGeometry x="605.13" y="397.5" width="29.75" height="48" as="geometry" />
        </mxCell>
        <mxCell id="BYBcxZ3BFC2ZWahzX4ps-83" value="Secrets" style="endArrow=classic;html=1;fontColor=#0066CC;strokeColor=#0066CC;exitX=-0.114;exitY=0.648;exitDx=0;exitDy=0;exitPerimeter=0;" edge="1" parent="1" source="BYBcxZ3BFC2ZWahzX4ps-79">
          <mxGeometry width="50" height="50" relative="1" as="geometry">
            <mxPoint x="475" y="316.62" as="sourcePoint" />
            <mxPoint x="477" y="380" as="targetPoint" />
          </mxGeometry>
        </mxCell>
        <mxCell id="BYBcxZ3BFC2ZWahzX4ps-84" value="" style="aspect=fixed;html=1;points=[];align=center;image;fontSize=12;image=img/lib/azure2/preview/Web_Environment.svg;fontColor=#0066CC;strokeColor=#0066CC;fillColor=none;" vertex="1" parent="1">
          <mxGeometry x="210" y="336" width="64" height="66" as="geometry" />
        </mxCell>
        <mxCell id="BYBcxZ3BFC2ZWahzX4ps-85" value="Public facing web-app" style="text;html=1;strokeColor=none;fillColor=none;align=center;verticalAlign=middle;whiteSpace=wrap;rounded=0;fontColor=#0066CC;" vertex="1" parent="1">
          <mxGeometry x="197" y="404" width="90" height="20" as="geometry" />
        </mxCell>
        <mxCell id="BYBcxZ3BFC2ZWahzX4ps-86" value="" style="edgeStyle=orthogonalEdgeStyle;rounded=0;orthogonalLoop=1;jettySize=auto;html=1;fontColor=#0066CC;strokeColor=#0066CC;" edge="1" parent="1">
          <mxGeometry relative="1" as="geometry">
            <mxPoint x="106.23" y="368.5" as="sourcePoint" />
            <mxPoint x="186.23" y="368.5" as="targetPoint" />
          </mxGeometry>
        </mxCell>
        <mxCell id="BYBcxZ3BFC2ZWahzX4ps-87" value="" style="aspect=fixed;html=1;points=[];align=center;image;fontSize=12;image=img/lib/azure2/management_governance/Monitor.svg;fontColor=#0066CC;strokeColor=#0066CC;fillColor=none;" vertex="1" parent="1">
          <mxGeometry x="635" y="190" width="53" height="53" as="geometry" />
        </mxCell>
        <mxCell id="BYBcxZ3BFC2ZWahzX4ps-90" value="" style="aspect=fixed;html=1;points=[];align=center;image;fontSize=12;image=img/lib/azure2/general/Dashboard.svg;fontColor=#0066CC;strokeColor=#0066CC;fillColor=none;" vertex="1" parent="1">
          <mxGeometry x="426" y="67" width="68" height="48" as="geometry" />
        </mxCell>
        <mxCell id="BYBcxZ3BFC2ZWahzX4ps-96" value="Pull" style="endArrow=classic;html=1;fontColor=#0066CC;strokeColor=#0066CC;" edge="1" parent="1">
          <mxGeometry width="50" height="50" relative="1" as="geometry">
            <mxPoint x="520" y="460" as="sourcePoint" />
            <mxPoint x="435" y="419.5" as="targetPoint" />
          </mxGeometry>
        </mxCell>
        <mxCell id="BYBcxZ3BFC2ZWahzX4ps-97" value="Build and Push images" style="endArrow=classic;html=1;fontColor=#0066CC;strokeColor=#0066CC;" edge="1" parent="1">
          <mxGeometry width="50" height="50" relative="1" as="geometry">
            <mxPoint x="421.8" y="540" as="sourcePoint" />
            <mxPoint x="520" y="490" as="targetPoint" />
          </mxGeometry>
        </mxCell>
        <mxCell id="BYBcxZ3BFC2ZWahzX4ps-99" value="" style="aspect=fixed;html=1;points=[];align=center;image;fontSize=12;image=img/lib/azure2/management_governance/Application_Insights.svg;fontColor=#0066CC;strokeColor=#0066CC;fillColor=none;" vertex="1" parent="1">
          <mxGeometry x="393" y="180" width="44" height="63" as="geometry" />
        </mxCell>
        <mxCell id="BYBcxZ3BFC2ZWahzX4ps-100" value="" style="aspect=fixed;html=1;points=[];align=center;image;fontSize=12;image=img/lib/azure2/analytics/Log_Analytics_Workspaces.svg;fontColor=#0066CC;strokeColor=#0066CC;fillColor=none;" vertex="1" parent="1">
          <mxGeometry x="531" y="189" width="54" height="54" as="geometry" />
        </mxCell>
        <mxCell id="BYBcxZ3BFC2ZWahzX4ps-104" value="" style="aspect=fixed;html=1;points=[];align=center;image;fontSize=12;image=img/lib/azure2/management_governance/Alerts.svg;fontColor=#0066CC;strokeColor=#0066CC;fillColor=none;" vertex="1" parent="1">
          <mxGeometry x="596.18" y="69" width="59.82" height="50" as="geometry" />
        </mxCell>
        <mxCell id="BYBcxZ3BFC2ZWahzX4ps-105" value="" style="aspect=fixed;html=1;points=[];align=center;image;fontSize=12;image=img/lib/azure2/management_governance/Metrics.svg;fontColor=#0066CC;strokeColor=#0066CC;fillColor=none;" vertex="1" parent="1">
          <mxGeometry x="522.69" y="67" width="44.31" height="48" as="geometry" />
        </mxCell>
        <mxCell id="BYBcxZ3BFC2ZWahzX4ps-106" value="Dashboard" style="text;html=1;strokeColor=none;fillColor=none;align=center;verticalAlign=middle;whiteSpace=wrap;rounded=0;fontColor=#0066CC;" vertex="1" parent="1">
          <mxGeometry x="445" y="116" width="40" height="20" as="geometry" />
        </mxCell>
        <mxCell id="BYBcxZ3BFC2ZWahzX4ps-107" value="Diagnostics" style="text;html=1;strokeColor=none;fillColor=none;align=center;verticalAlign=middle;whiteSpace=wrap;rounded=0;fontColor=#0066CC;" vertex="1" parent="1">
          <mxGeometry x="529" y="115" width="40" height="20" as="geometry" />
        </mxCell>
        <mxCell id="BYBcxZ3BFC2ZWahzX4ps-109" value="Alerts" style="text;html=1;strokeColor=none;fillColor=none;align=center;verticalAlign=middle;whiteSpace=wrap;rounded=0;fontColor=#0066CC;" vertex="1" parent="1">
          <mxGeometry x="609" y="116" width="40" height="20" as="geometry" />
        </mxCell>
        <mxCell id="BYBcxZ3BFC2ZWahzX4ps-110" value="" style="endArrow=classic;html=1;fontColor=#0066CC;strokeColor=#0066CC;" edge="1" parent="1">
          <mxGeometry width="50" height="50" relative="1" as="geometry">
            <mxPoint x="412.5" y="320" as="sourcePoint" />
            <mxPoint x="413" y="250" as="targetPoint" />
          </mxGeometry>
        </mxCell>
        <mxCell id="BYBcxZ3BFC2ZWahzX4ps-111" value="Application&lt;br&gt;Insights" style="text;html=1;strokeColor=none;fillColor=none;align=center;verticalAlign=middle;whiteSpace=wrap;rounded=0;fontColor=#0066CC;" vertex="1" parent="1">
          <mxGeometry x="351" y="243" width="40" height="20" as="geometry" />
        </mxCell>
        <mxCell id="BYBcxZ3BFC2ZWahzX4ps-113" value="" style="endArrow=classic;html=1;fontColor=#0066CC;strokeColor=#0066CC;" edge="1" parent="1">
          <mxGeometry width="50" height="50" relative="1" as="geometry">
            <mxPoint x="663.5" y="280" as="sourcePoint" />
            <mxPoint x="663.5" y="243" as="targetPoint" />
          </mxGeometry>
        </mxCell>
        <mxCell id="BYBcxZ3BFC2ZWahzX4ps-116" value="Azure Monitor" style="text;html=1;strokeColor=none;fillColor=none;align=center;verticalAlign=middle;whiteSpace=wrap;rounded=0;fontColor=#0066CC;" vertex="1" parent="1">
          <mxGeometry x="695" y="214" width="40" height="20" as="geometry" />
        </mxCell>
        <mxCell id="BYBcxZ3BFC2ZWahzX4ps-117" value="Log Analytics" style="text;html=1;strokeColor=none;fillColor=none;align=center;verticalAlign=middle;whiteSpace=wrap;rounded=0;fontColor=#0066CC;" vertex="1" parent="1">
          <mxGeometry x="485" y="214" width="40" height="20" as="geometry" />
        </mxCell>
        <mxCell id="BYBcxZ3BFC2ZWahzX4ps-118" value="" style="endArrow=classic;html=1;fontColor=#0066CC;strokeColor=#0066CC;" edge="1" parent="1">
          <mxGeometry width="50" height="50" relative="1" as="geometry">
            <mxPoint x="661" y="180" as="sourcePoint" />
            <mxPoint x="661" y="142" as="targetPoint" />
          </mxGeometry>
        </mxCell>
        <mxCell id="BYBcxZ3BFC2ZWahzX4ps-120" value="" style="endArrow=classic;html=1;fontColor=#0066CC;strokeColor=#0066CC;" edge="1" parent="1">
          <mxGeometry width="50" height="50" relative="1" as="geometry">
            <mxPoint x="557.5" y="180" as="sourcePoint" />
            <mxPoint x="557.5" y="142" as="targetPoint" />
          </mxGeometry>
        </mxCell>
        <mxCell id="BYBcxZ3BFC2ZWahzX4ps-121" value="" style="endArrow=classic;html=1;fontColor=#0066CC;strokeColor=#0066CC;" edge="1" parent="1">
          <mxGeometry width="50" height="50" relative="1" as="geometry">
            <mxPoint x="414.5" y="178" as="sourcePoint" />
            <mxPoint x="414.5" y="140" as="targetPoint" />
          </mxGeometry>
        </mxCell>
        <mxCell id="BYBcxZ3BFC2ZWahzX4ps-124" value="" style="rounded=0;whiteSpace=wrap;html=1;fontColor=#0066CC;strokeColor=#0066CC;fillColor=none;" vertex="1" parent="1">
          <mxGeometry x="410" y="60" width="260" height="76" as="geometry" />
        </mxCell>
        <mxCell id="BYBcxZ3BFC2ZWahzX4ps-125" value="" style="endArrow=classic;html=1;fontColor=#0066CC;strokeColor=#0066CC;" edge="1" parent="1">
          <mxGeometry width="50" height="50" relative="1" as="geometry">
            <mxPoint x="635" y="211" as="sourcePoint" />
            <mxPoint x="585" y="211" as="targetPoint" />
          </mxGeometry>
        </mxCell>
      </root>
    </mxGraphModel>
  </diagram>
</mxfile>
